<?xml version="1.0" encoding="utf-8"?>
<!-- Generator: Adobe Illustrator 16.0.4, SVG Export Plug-In . SVG Version: 6.00 Build 0)  -->
<!DOCTYPE svg PUBLIC "-//W3C//DTD SVG 1.1//EN" "http://www.w3.org/Graphics/SVG/1.1/DTD/svg11.dtd">
<svg version="1.1" id="Layer_1" xmlns="http://www.w3.org/2000/svg" xmlns:xlink="http://www.w3.org/1999/xlink" x="0px" y="0px"
	 width="256px" height="256px" viewBox="-104 -104 256 256" enable-background="new -104 -104 256 256" xml:space="preserve">
<g>
	<path fill="#FFFFFF" d="M24-96.829c66.621,0,120.842,54.208,120.842,120.845c0,66.616-54.221,120.826-120.842,120.826
		c-66.626,0-120.839-54.21-120.839-120.826C-96.839-42.621-42.626-96.829,24-96.829 M24-103.833
		c-70.611,0-127.833,57.228-127.833,127.844c0,70.601,57.222,127.822,127.833,127.822S151.833,94.611,151.833,24.011
		C151.833-46.605,94.611-103.833,24-103.833L24-103.833z"/>
	<path fill="#FFFFFF" d="M23.909-28.796L-0.72,21.251l-40.172-31.253v70.902h17.126h12.403h70.983h12.192h14.596v-71.009
		l-38.18,30.541L23.909-28.796z M-34.281,54.283V3.532L1.662,31.428L23.93-13.833l22.032,44.575L79.803,3.654v50.629H-34.281z"/>
	<path fill="#FFFFFF" d="M24-45.568c7.002,0,12.723-5.678,12.723-12.715c0-7.009-5.71-12.687-12.723-12.687
		c-7.009,0-12.736,5.678-12.736,12.687C11.264-51.246,16.997-45.568,24-45.568z M24-64.369c3.376,0,6.096,2.731,6.096,6.091
		c0,3.384-2.72,6.127-6.096,6.127c-3.371,0-6.104-2.749-6.104-6.127C17.896-61.638,20.629-64.369,24-64.369z"/>
	<path fill="#FFFFFF" d="M87.709-52.109c-7.002,0-12.723,5.711-12.723,12.736c0,7.004,5.721,12.702,12.723,12.702
		c7.011,0,12.733-5.698,12.733-12.702C100.442-46.397,94.72-52.109,87.709-52.109z M87.709-33.269c-3.376,0-6.097-2.733-6.097-6.104
		c0-3.384,2.721-6.114,6.097-6.114c3.381,0,6.116,2.73,6.116,6.114C93.825-36.007,91.09-33.269,87.709-33.269z"/>
	<path fill="#FFFFFF" d="M-27.006-39.373c0-7.02-5.704-12.736-12.712-12.736c-7.02,0-12.736,5.711-12.736,12.736
		c0,7.004,5.708,12.702,12.736,12.702C-32.704-26.676-27.006-32.369-27.006-39.373z M-45.839-39.373c0-3.384,2.757-6.114,6.12-6.114
		c3.371,0,6.104,2.73,6.104,6.114c0,3.371-2.734,6.104-6.104,6.104C-43.082-33.269-45.839-36.007-45.839-39.373z"/>
	<path fill="#FFFFFF" d="M-40.892,101.186H86.409V78.054H-40.892V101.186z M-34.281,84.671H79.803v9.903H-34.281V84.671z"/>
</g>
</svg>
