<?xml version="1.0" encoding="utf-8"?>
<!-- Generator: Adobe Illustrator 21.1.0, SVG Export Plug-In . SVG Version: 6.00 Build 0)  -->
<svg version="1.1" id="Layer_1" xmlns="http://www.w3.org/2000/svg" xmlns:xlink="http://www.w3.org/1999/xlink" x="0px" y="0px"
	 viewBox="0 0 298.6 85.3" style="enable-background:new 0 0 298.6 85.3;" xml:space="preserve">
<style type="text/css">
	.st0{fill:#FFFFFF;}
</style>
<g>
	<g>
		<g>
			<path class="st0" d="M42.6,0C19.1,0,0,19.1,0,42.6c0,23.5,19.1,42.6,42.6,42.6c23.5,0,42.6-19.1,42.6-42.6
				C85.3,19.1,66.2,0,42.6,0z M42.6,81.3C21.3,81.3,4,64,4,42.6C4,21.3,21.3,4,42.6,4C64,4,81.3,21.3,81.3,42.6
				C81.3,64,64,81.3,42.6,81.3z"/>
		</g>
		<g>
			<g>
				<g>
					<path class="st0" d="M50.7,44l-8.1-16.4l-8.2,16.6L21,33.9v25.2h42.5V33.8L50.7,44z M42.6,36.2l6.8,13.7l10.3-8.2v13.7H24.8
						V41.6l11,8.5L42.6,36.2z"/>
				</g>
				<g>
					<path class="st0" d="M42.6,15.2c-2.7,0-4.9,2.2-4.9,4.9c0,2.7,2.2,4.9,4.9,4.9c2.7,0,4.9-2.2,4.9-4.9
						C47.5,17.4,45.4,15.2,42.6,15.2z M42.6,19c0.6,0,1.1,0.5,1.1,1.1c0,0.6-0.5,1.1-1.1,1.1c-0.6,0-1.1-0.5-1.1-1.1
						C41.5,19.5,42,19,42.6,19z"/>
				</g>
				<g>
					<path class="st0" d="M62.5,21.3c-2.7,0-4.9,2.2-4.9,4.9c0,2.7,2.2,4.9,4.9,4.9c2.7,0,4.9-2.2,4.9-4.9
						C67.4,23.4,65.2,21.3,62.5,21.3z M62.5,25c0.6,0,1.1,0.5,1.1,1.1c0,0.6-0.5,1.1-1.1,1.1c-0.6,0-1.1-0.5-1.1-1.1
						C61.4,25.5,61.9,25,62.5,25z"/>
				</g>
				<g>
					<path class="st0" d="M22.8,21.3c-2.7,0-4.9,2.2-4.9,4.9c0,2.7,2.2,4.9,4.9,4.9c2.7,0,4.9-2.2,4.9-4.9
						C27.7,23.4,25.5,21.3,22.8,21.3z M22.8,27.3c-0.6,0-1.1-0.5-1.1-1.1c0-0.6,0.5-1.1,1.1-1.1c0.6,0,1.1,0.5,1.1,1.1
						C23.9,26.8,23.4,27.3,22.8,27.3z"/>
				</g>
			</g>
			<rect x="21" y="62.9" class="st0" width="42.5" height="3.8"/>
		</g>
	</g>
	<g>
		<path class="st0" d="M114.3,34.3v-8.1h-7v8.1h-4.8V15.2h4.8v6.9h7v-6.9h4.8v19.1H114.3z"/>
		<path class="st0" d="M140.4,34.3c0,0,0-10.5,0.1-14.3l-4,14.3h-4.1L128.5,20c0.1,2.7,0.1,14.3,0.1,14.3H124V15.2h7l3.6,13.3
			l3.5-13.3h7v19.1H140.4z"/>
		<path class="st0" d="M173.1,29.9c-1.5,2.6-4.2,4.9-8.2,4.9c-5,0-9.1-3.7-9.1-10.1c0-5.6,3.8-10.1,9.2-10.1c3.5,0,6.7,2.1,8,4.9
			l-3.8,1.9c-0.4-1.4-2.1-2.9-4-2.9c-3.1,0-4.7,2.9-4.7,6c0,4.2,2.1,6.3,4.7,6.3c2.5,0,3.5-1.7,4.1-2.8L173.1,29.9z"/>
		<path class="st0" d="M175.6,18.4v-3.2h4.1v3.2H175.6z M175.6,34.3V20.2h4.1v14.1H175.6z"/>
		<path class="st0" d="M188.1,23.1v6.7c0,0.9,0.4,1.2,1.1,1.2c0.3,0,1.5,0,1.5,0v3.2c-0.3,0.1-1.1,0.2-2.6,0.2c-2.3,0-4-0.7-4-4V23
			h-2.1v-2.5h2.1v-4.4h4.1v4.4h2.8v2.5H188.1z"/>
		<path class="st0" d="M193,18.4v-3.2h4.1v3.2H193z M193,34.3V20.2h4.1v14.1H193z"/>
		<path class="st0" d="M200,34.3v-3.1l7.6-7.8h-6.8v-3.2h12.1v3.2l-7.5,7.7h7.5v3.2H200z"/>
		<path class="st0" d="M218.8,28.1v0.2c0,1.9,1.3,3.3,3.2,3.3c2,0,3.1-1.3,3.6-2.5l3.1,1.6c-1.6,2.7-4.1,4.1-7,4.1
			c-4.3,0-7.1-2.7-7.1-7.3c0-3.5,1.7-7.7,7.2-7.7c5.3,0,7.1,4.2,7.1,8.2v0.2H218.8z M224.6,25.5c-0.1-1.6-1.1-2.8-2.8-2.8
			c-2,0-2.8,1.6-3,2.8H224.6z"/>
		<path class="st0" d="M239.7,34.3v-8.7c0-1.3-0.4-2.4-2.1-2.4c-1.9,0-2.2,1.3-2.2,3.2v7.9h-4.2V20.2h4.2v1.2c0.7-0.8,2-1.6,4-1.6
			c2.9,0,4.4,1.5,4.4,4.3v10.1H239.7z"/>
		<path class="st0" d="M111.6,47.6c2.8,0,7.3,0.7,7.3,6.2c0,3.2-1.8,4.5-3.9,5.3l4.4,7.6h-5.2l-3.8-6.8h-3v6.8h-4.8V47.6H111.6z
			 M107.3,56.3h3.9c2.7,0,2.9-2.1,2.9-2.6c0-2.5-2-2.5-2.8-2.5h-4V56.3z"/>
		<path class="st0" d="M128.3,67.1c-3.7,0-7.6-2-7.6-7.6c0-3.6,2.2-7.4,7.4-7.4c5.9,0,7.7,4.1,7.7,7.5
			C135.9,64.2,133,67.1,128.3,67.1z M128.1,55.4c-1.6,0-3.2,1.2-3.2,4.1c0,2.3,1,4.2,3.4,4.2c2.3,0,3.3-1.9,3.3-4
			C131.6,56.8,130.4,55.4,128.1,55.4z"/>
		<path class="st0" d="M143.2,55.5v6.7c0,0.9,0.4,1.2,1.1,1.2c0.3,0,1.5,0,1.5,0v3.2c-0.3,0.1-1.1,0.2-2.6,0.2c-2.3,0-4-0.7-4-4
			v-7.3H137v-2.5h2.1v-4.4h4.1v4.4h2.8v2.5H143.2z"/>
		<path class="st0" d="M156.4,66.7v-1.3c-1.1,0.7-2.2,1.6-4.3,1.6c-3.2,0-4.6-2.3-4.6-4.3c0-1.8,1.2-3.3,3-4c1-0.4,2.5-0.7,5.6-1.3
			v-0.8c0-0.5-0.1-1.7-1.6-1.7c-1.8,0-2.1,1-2.2,1.6h-4.2c0-3.1,2.9-4.4,5.9-4.4c2.4,0,6.1,0.6,6.1,4v8.2c0,1.2,0.1,1.7,0.4,2.2
			H156.4z M153.3,60.8c-1.4,0.5-1.8,1.1-1.8,1.8c0,0.5,0.4,1.4,1.6,1.4c1.6,0,2.9-1.5,2.9-3.5v-0.6L153.3,60.8z"/>
		<path class="st0" d="M168.5,55.5v6.7c0,0.9,0.4,1.2,1.1,1.2c0.3,0,1.5,0,1.5,0v3.2c-0.3,0.1-1.1,0.2-2.6,0.2c-2.3,0-4-0.7-4-4
			v-7.3h-2.1v-2.5h2.1v-4.4h4.1v4.4h2.8v2.5H168.5z"/>
		<path class="st0" d="M173.4,50.8v-3.2h4.1v3.2H173.4z M173.4,66.7V52.6h4.1v14.1H173.4z"/>
		<path class="st0" d="M187.9,67.1c-3.7,0-7.6-2-7.6-7.6c0-3.6,2.2-7.4,7.4-7.4c5.9,0,7.7,4.1,7.7,7.5
			C195.5,64.2,192.6,67.1,187.9,67.1z M187.7,55.4c-1.6,0-3.2,1.2-3.2,4.1c0,2.3,1,4.2,3.4,4.2c2.3,0,3.3-1.9,3.3-4
			C191.3,56.8,190,55.4,187.7,55.4z"/>
		<path class="st0" d="M206.6,66.7V58c0-1.3-0.4-2.4-2.1-2.4c-1.9,0-2.2,1.3-2.2,3.2v7.9h-4.2V52.6h4.2v1.2c0.7-0.8,2-1.6,4-1.6
			c2.9,0,4.4,1.5,4.4,4.3v10.1H206.6z"/>
		<path class="st0" d="M231.1,47c6.9,0,9.7,5.7,9.7,10.3c0,5.1-3.5,10-9.6,10c-6.3,0-9.5-4.9-9.5-10.2C221.7,52.7,224.2,47,231.1,47
			z M231.2,63.2c3.5,0,4.8-3.3,4.8-6c0-3.5-1.5-6.2-4.9-6.2c-3.6,0-4.7,3.4-4.7,6C226.4,60.1,227.7,63.2,231.2,63.2z"/>
		<path class="st0" d="M248.5,55.4v11.2h-4.1V55.4h-2.2v-2.5h2.2v-2c0-2.4,1.8-3.6,4.2-3.6c1,0,2.3,0.2,2.5,0.2v3.1h-0.8
			c-1.7,0-1.9,0.4-1.9,1.4v0.8h2.8v2.5H248.5z"/>
		<path class="st0" d="M258.1,55.4v11.2H254V55.4h-2.2v-2.5h2.2v-2c0-2.4,1.8-3.6,4.2-3.6c1,0,2.3,0.2,2.5,0.2v3.1h-0.8
			c-1.7,0-1.9,0.4-1.9,1.4v0.8h2.8v2.5H258.1z M262.9,50.8v-3.2h4.1v3.2H262.9z M262.9,66.7V52.6h4.1v14.1H262.9z"/>
		<path class="st0" d="M283.1,63.3c-1.6,2.8-4.1,3.8-6.3,3.8c-3.3,0-7-2.1-7-7.4c0-5.6,3.9-7.6,7.1-7.6c1.3,0,4,0.3,6,3.4l-3.1,1.8
			c-0.4-0.8-1.1-2-2.8-2c-2.2,0-3,2.5-3,4.2c0,1.8,0.8,4.2,3.1,4.2c1.6,0,2.4-1.2,2.7-2.1L283.1,63.3z"/>
		<path class="st0" d="M288.6,60.5v0.2c0,1.9,1.3,3.3,3.2,3.3c2,0,3.1-1.3,3.6-2.5l3.1,1.6c-1.6,2.7-4.1,4.1-7,4.1
			c-4.3,0-7.1-2.7-7.1-7.3c0-3.5,1.7-7.7,7.2-7.7c5.3,0,7.1,4.2,7.1,8.2v0.2H288.6z M294.3,57.9c-0.1-1.6-1.1-2.8-2.8-2.8
			c-2,0-2.8,1.6-3,2.8H294.3z"/>
	</g>
</g>
</svg>
